<?xml version="1.0" standalone="no"?>
<!DOCTYPE svg PUBLIC "-//W3C//DTD SVG 20010904//EN"
 "http://www.w3.org/TR/2001/REC-SVG-20010904/DTD/svg10.dtd">
<svg version="1.0" xmlns="http://www.w3.org/2000/svg"
 width="640.000000pt" height="640.000000pt" viewBox="0 0 640.000000 640.000000"
 preserveAspectRatio="xMidYMid meet">
<metadata>
Created by potrace 1.11, written by Peter Selinger 2001-2013
</metadata>
<g transform="translate(0.000000,640.000000) scale(0.100000,-0.100000)"
fill="#000000" stroke="none">
<path d="M4144 4752 c-89 -80 -246 -154 -413 -194 -81 -20 -125 -21 -756 -27
-665 -7 -671 -7 -740 -30 -99 -33 -170 -76 -240 -145 -98 -99 -171 -263 -191
-429 l-7 -59 63 51 c118 94 285 168 449 196 79 14 421 22 421 10 0 -3 -74
-303 -165 -668 -107 -425 -176 -684 -195 -724 -71 -155 -223 -235 -407 -218
-73 7 -102 25 -40 25 19 0 55 13 87 33 164 99 159 369 -10 461 -99 54 -242 35
-323 -42 -92 -87 -101 -276 -21 -434 124 -245 549 -361 864 -236 136 54 244
141 319 257 57 89 71 132 162 494 44 177 84 339 90 360 l10 37 179 0 c151 0
180 -2 180 -15 0 -8 -70 -281 -156 -606 -165 -628 -177 -694 -155 -814 17 -93
72 -195 137 -254 145 -132 429 -209 624 -167 266 57 420 242 420 506 0 68 -5
95 -24 135 -44 94 -124 139 -246 140 -131 0 -210 -59 -247 -184 -30 -106 3
-249 74 -311 32 -29 33 -30 10 -30 -41 0 -131 31 -165 57 -49 37 -72 80 -72
136 0 36 229 985 331 1370 l10 37 174 0 c96 0 198 5 227 11 143 30 259 123
328 263 37 75 80 230 67 243 -3 3 -20 -5 -37 -17 -35 -25 -112 -53 -208 -77
-57 -14 -159 -17 -711 -20 -528 -3 -643 -2 -639 9 3 7 18 65 33 129 l28 116
201 6 c222 6 273 15 395 73 144 68 259 216 310 401 23 86 37 183 25 183 -5 -1
-28 -18 -50 -38z"/>
</g>
</svg>
